<svg width="657.9px" height="122px" xmlns="http://www.w3.org/2000/svg" viewBox="-78.94687499999998 14 657.89375 122" style="background: rgba(0, 0, 0, 0)" preserveAspectRatio="xMidYMid"><defs><linearGradient id="editing-outline-gradient" x1="-0.41354545764260087" x2="1.4135454576426008" y1="0.09326335692419985" y2="0.9067366430758002"><stop offset="0" stop-color="#003dff"></stop><stop offset="1" stop-color="#6964ea"></stop></linearGradient><filter id="editing-outline" x="-100%" y="-100%" width="300%" height="300%"><feMorphology in="SourceGraphic" operator="dilate" radius="1" result="outline"></feMorphology><feComposite operator="out" in="outline" in2="SourceAlpha"></feComposite></filter></defs><g filter="url(#editing-outline)"><g transform="matrix(1.4,0,0,1.5,-54.5,108.4)"><path d="M 10.8 -9.3 L -3.2 -9.3 L 5 -51.6 L 19.1 -51.6 L 10.8 -9.3 Z M 66.5 -8 L 66.5 -8 L 66.5 -8 Q 58.8 -8 58.8 -14.1 L 58.8 -14.1 L 58.8 -14.1 Q 58.8 -16.7 59.9 -21.8 L 59.9 -21.8 L 59.9 -21.8 Q 61 -26.9 61.4 -28.9 L 61.4 -28.9 L 61.4 -28.9 Q 62.3 -33.6 62.3 -35.1 L 62.3 -35.1 L 62.3 -35.1 Q 62.3 -38.3 59.9 -38.3 L 59.9 -38.3 L 59.9 -38.3 Q 58.3 -38.3 56.8 -36.1 L 56.8 -36.1 L 56.8 -36.1 Q 55.2 -33.9 54.5 -29.5 L 54.5 -29.5 L 50.5 -9.3 L 38.1 -8 L 41.5 -25.5 L 41.5 -25.5 Q 42.1 -28.3 42.6 -31.6 L 42.6 -31.6 L 42.6 -31.6 Q 43.1 -34.9 43.1 -35.4 L 43.1 -35.4 L 43.1 -35.4 Q 43.1 -38.3 40.9 -38.3 L 40.9 -38.3 L 40.9 -38.3 Q 39.5 -38.3 37.9 -36.1 L 37.9 -36.1 L 37.9 -36.1 Q 36.3 -34 35.4 -29.5 L 35.4 -29.5 L 31.5 -9.3 L 18.9 -8 L 25.6 -42 L 36 -43.2 L 34.9 -36.8 L 34.9 -36.8 Q 36.6 -40.2 39.7 -41.7 L 39.7 -41.7 L 39.7 -41.7 Q 42.7 -43.2 47.5 -43.2 L 47.5 -43.2 L 47.5 -43.2 Q 50.3 -43.2 52.1 -41.9 L 52.1 -41.9 L 52.1 -41.9 Q 53.9 -40.6 54.4 -38.4 L 54.4 -38.4 L 54.4 -38.4 Q 55.5 -40.6 58.3 -41.9 L 58.3 -41.9 L 58.3 -41.9 Q 61.1 -43.2 64.5 -43.2 L 64.5 -43.2 L 64.5 -43.2 Q 68 -43.2 69.6 -42.5 L 69.6 -42.5 L 69.6 -42.5 Q 71.3 -41.8 72.4 -40.6 L 72.4 -40.6 L 72.4 -40.6 Q 74.1 -38.3 74.1 -34.2 L 74.1 -34.2 L 74.1 -34.2 Q 74.1 -30.2 72.4 -21.8 L 72.4 -21.8 L 72.4 -21.8 Q 71.5 -17.7 71.5 -16.2 L 71.5 -16.2 L 71.5 -16.2 Q 71.5 -14.7 72.3 -13.8 L 72.3 -13.8 L 72.3 -13.8 Q 73.2 -12.9 74.5 -12.8 L 74.5 -12.8 L 74.5 -12.8 Q 73.8 -10.6 71.6 -9.3 L 71.6 -9.3 L 71.6 -9.3 Q 69.4 -8 66.5 -8 Z M 82.2 -11.2 L 82.2 -11.2 L 82.2 -11.2 Q 80.7 -12.9 80 -15.5 L 80 -15.5 L 80 -15.5 Q 79.3 -18.2 79.3 -22.4 L 79.3 -22.4 L 79.3 -22.4 Q 79.3 -26.7 80.8 -30.6 L 80.8 -30.6 L 80.8 -30.6 Q 82.3 -34.5 85 -37.4 L 85 -37.4 L 85 -37.4 Q 90.5 -43.2 99.6 -43.2 L 99.6 -43.2 L 99.6 -43.2 Q 102.8 -43.2 105.2 -42.2 L 105.2 -42.2 L 116.1 -43.2 L 111.4 -18.3 L 111.4 -18.3 Q 111.2 -17.5 111.2 -16.1 L 111.2 -16.1 L 111.2 -16.1 Q 111.2 -14.7 112.1 -13.8 L 112.1 -13.8 L 112.1 -13.8 Q 112.9 -12.9 114.2 -12.8 L 114.2 -12.8 L 114.2 -12.8 Q 113.6 -10.6 111.2 -9.3 L 111.2 -9.3 L 111.2 -9.3 Q 108.9 -8 106.3 -8 L 106.3 -8 L 106.3 -8 Q 103.7 -8 101.9 -9 L 101.9 -9 L 101.9 -9 Q 100.1 -10 99.6 -11.7 L 99.6 -11.7 L 99.6 -11.7 Q 98.6 -10.1 96.4 -9.1 L 96.4 -9.1 L 96.4 -9.1 Q 94.3 -8 91.3 -8 L 91.3 -8 L 91.3 -8 Q 88.4 -8 86.1 -8.8 L 86.1 -8.8 L 86.1 -8.8 Q 83.7 -9.6 82.2 -11.2 Z M 95.7 -37.2 L 95.7 -37.2 L 95.7 -37.2 Q 95 -36.1 94.3 -34.1 L 94.3 -34.1 L 94.3 -34.1 Q 93.7 -32.2 92.6 -27 L 92.6 -27 L 92.6 -27 Q 91.6 -21.7 91.6 -18 L 91.6 -18 L 91.6 -18 Q 91.6 -14.3 92.1 -13.2 L 92.1 -13.2 L 92.1 -13.2 Q 92.7 -12.1 93.7 -12.1 L 93.7 -12.1 L 93.7 -12.1 Q 95.8 -12.1 97.3 -14.1 L 97.3 -14.1 L 97.3 -14.1 Q 98.8 -16 99.4 -19.5 L 99.4 -19.5 L 102.8 -38.3 L 102.8 -38.3 Q 101.4 -39.4 99.9 -39.4 L 99.9 -39.4 L 99.9 -39.4 Q 98.3 -39.4 97.4 -38.9 L 97.4 -38.9 L 97.4 -38.9 Q 96.4 -38.4 95.7 -37.2 Z M 123.9 -36.1 L 123.9 -36.1 L 123.9 -36.1 Q 126.1 -39.1 129.4 -41.2 L 129.4 -41.2 L 129.4 -41.2 Q 132.7 -43.2 136.7 -43.2 L 136.7 -43.2 L 136.7 -43.2 Q 140.7 -43.2 142.6 -42 L 142.6 -42 L 155.2 -43.2 L 150.8 -18.7 L 150.8 -18.7 Q 148.6 -6.1 143.9 -1.2 L 143.9 -1.2 L 143.9 -1.2 Q 139.3 3.5 130.5 3.5 L 130.5 3.5 L 130.5 3.5 Q 123.8 3.5 119.9 1.4 L 119.9 1.4 L 119.9 1.4 Q 116.1 -0.7 116.1 -4.3 L 116.1 -4.3 L 116.1 -4.3 Q 116.1 -6.9 118.1 -8.4 L 118.1 -8.4 L 118.1 -8.4 Q 120 -9.9 123.1 -9.9 L 123.1 -9.9 L 123.1 -9.9 Q 125.8 -9.9 127.9 -8.7 L 127.9 -8.7 L 127.9 -8.7 Q 129.1 -8 129.6 -7.1 L 129.6 -7.1 L 129.6 -7.1 Q 128.2 -5.9 128.2 -3.8 L 128.2 -3.8 L 128.2 -3.8 Q 128.2 -1 130.7 -1 L 130.7 -1 L 130.7 -1 Q 135 -1 137.5 -11.1 L 137.5 -11.1 L 137.5 -11.1 Q 138.2 -13.9 138.7 -16.6 L 138.7 -16.6 L 138.7 -16.6 Q 135.9 -13.1 129.3 -13.1 L 129.3 -13.1 L 129.3 -13.1 Q 124.8 -13.1 122.2 -15.3 L 122.2 -15.3 L 122.2 -15.3 Q 119.5 -17.5 119.5 -22.6 L 119.5 -22.6 L 119.5 -22.6 Q 119.5 -25.8 120.6 -29.4 L 120.6 -29.4 L 120.6 -29.4 Q 121.7 -33 123.9 -36.1 Z M 132.2 -22.4 L 132.2 -22.4 L 132.2 -22.4 Q 132.2 -18 134.4 -18 L 134.4 -18 L 134.4 -18 Q 136 -18 137.5 -19.7 L 137.5 -19.7 L 137.5 -19.7 Q 138.6 -21 139.1 -23 L 139.1 -23 L 142.3 -39.5 L 142.3 -39.5 Q 142 -39.5 141.7 -39.7 L 141.7 -39.7 L 141.7 -39.7 Q 141 -39.9 140.2 -39.9 L 140.2 -39.9 L 140.2 -39.9 Q 136.3 -39.9 134 -33.5 L 134 -33.5 L 134 -33.5 Q 132.2 -28.5 132.2 -22.4 Z M 183.6 -20.1 L 183.6 -20.1 L 183.6 -20.1 Q 185.2 -19.1 185.2 -16.7 L 185.2 -16.7 L 185.2 -16.7 Q 185.2 -14.3 184 -12.7 L 184 -12.7 L 184 -12.7 Q 182.8 -11.2 180.8 -10.2 L 180.8 -10.2 L 180.8 -10.2 Q 176.7 -8 172.3 -8 L 172.3 -8 L 172.3 -8 Q 167.9 -8 165.3 -9 L 165.3 -9 L 165.3 -9 Q 162.7 -10 160.9 -11.8 L 160.9 -11.8 L 160.9 -11.8 Q 157.6 -15.1 157.6 -21.4 L 157.6 -21.4 L 157.6 -21.4 Q 157.6 -31 162.8 -36.9 L 162.8 -36.9 L 162.8 -36.9 Q 168.4 -43.2 178.2 -43.2 L 178.2 -43.2 L 178.2 -43.2 Q 184.3 -43.2 187.3 -40.7 L 187.3 -40.7 L 187.3 -40.7 Q 189.6 -38.8 189.6 -35.6 L 189.6 -35.6 L 189.6 -35.6 Q 189.6 -24.4 170.1 -24.4 L 170.1 -24.4 L 170.1 -24.4 Q 169.8 -22.7 169.8 -21.3 L 169.8 -21.3 L 169.8 -21.3 Q 169.8 -18.3 171.2 -17.2 L 171.2 -17.2 L 171.2 -17.2 Q 172.5 -16.1 174.9 -16.1 L 174.9 -16.1 L 174.9 -16.1 Q 177.3 -16.1 179.9 -17.2 L 179.9 -17.2 L 179.9 -17.2 Q 182.5 -18.3 183.6 -20.1 Z M 170.5 -27.1 L 170.5 -27.1 L 170.5 -27.1 Q 175.1 -27.1 177.7 -29.9 L 177.7 -29.9 L 177.7 -29.9 Q 180.3 -32.6 180.3 -36.9 L 180.3 -36.9 L 180.3 -36.9 Q 180.3 -38.4 179.8 -39.2 L 179.8 -39.2 L 179.8 -39.2 Q 179.2 -40 178.2 -40 L 178.2 -40 L 178.2 -40 Q 177.1 -40 176.1 -39.6 L 176.1 -39.6 L 176.1 -39.6 Q 175.2 -39.1 174.3 -37.7 L 174.3 -37.7 L 174.3 -37.7 Q 171.9 -34.5 170.5 -27.1 Z M 210.9 -31.8 L 210.9 -31.8 L 210.9 -31.8 Q 211.8 -34.2 211.8 -36.2 L 211.8 -36.2 L 211.8 -36.2 Q 211.8 -40 208.7 -40 L 208.7 -40 L 208.7 -40 Q 207.1 -40 205.8 -38.5 L 205.8 -38.5 L 205.8 -38.5 Q 204.5 -37.1 204.5 -35.3 L 204.5 -35.3 L 204.5 -35.3 Q 204.5 -34 205.5 -33 L 205.5 -33 L 205.5 -33 Q 207 -31.6 210.7 -29.3 L 210.7 -29.3 L 210.7 -29.3 Q 214.5 -27 216 -25.1 L 216 -25.1 L 216 -25.1 Q 217.4 -23.2 217.4 -20.6 L 217.4 -20.6 L 217.4 -20.6 Q 217.4 -18 216.1 -15.7 L 216.1 -15.7 L 216.1 -15.7 Q 214.9 -13.3 212.7 -11.6 L 212.7 -11.6 L 212.7 -11.6 Q 207.9 -8 200.2 -8 L 200.2 -8 L 200.2 -8 Q 196 -8 192.8 -10.2 L 192.8 -10.2 L 192.8 -10.2 Q 189.6 -12.3 189.6 -14.8 L 189.6 -14.8 L 189.6 -14.8 Q 189.6 -17.3 191.4 -18.8 L 191.4 -18.8 L 191.4 -18.8 Q 193.3 -20.3 196 -20.3 L 196 -20.3 L 196 -20.3 Q 198.6 -20.3 200.3 -19.2 L 200.3 -19.2 L 200.3 -19.2 Q 199.5 -17.1 199.5 -15.7 L 199.5 -15.7 L 199.5 -15.7 Q 199.5 -11.5 203.1 -11.5 L 203.1 -11.5 L 203.1 -11.5 Q 204.6 -11.5 205.6 -12.5 L 205.6 -12.5 L 205.6 -12.5 Q 206.6 -13.4 206.6 -15.1 L 206.6 -15.1 L 206.6 -15.1 Q 206.6 -18.3 201.1 -21.8 L 201.1 -21.8 L 201.1 -21.8 Q 196.7 -24.7 195.6 -25.9 L 195.6 -25.9 L 195.6 -25.9 Q 193.9 -27.9 193.9 -30.5 L 193.9 -30.5 L 193.9 -30.5 Q 193.9 -33.1 195.1 -35.5 L 195.1 -35.5 L 195.1 -35.5 Q 196.3 -37.9 198.6 -39.7 L 198.6 -39.7 L 198.6 -39.7 Q 203.2 -43.2 211.4 -43.2 L 211.4 -43.2 L 211.4 -43.2 Q 215.5 -43.2 218 -41.6 L 218 -41.6 L 218 -41.6 Q 220.5 -39.9 220.5 -37.1 L 220.5 -37.1 L 220.5 -37.1 Q 220.5 -34.3 218.8 -32.7 L 218.8 -32.7 L 218.8 -32.7 Q 217.1 -31.1 214 -31.1 L 214 -31.1 L 214 -31.1 Q 211.9 -31.1 210.9 -31.8 Z M 261.9 -29.9 L 274.9 -31.1 L 274.9 -31.1 Q 270.3 -21 270.3 -9.3 L 270.3 -9.3 L 270.3 -9.3 Q 268.5 -8 266 -8 L 266 -8 L 266 -8 Q 263.5 -8 261.9 -9.2 L 261.9 -9.2 L 261.9 -9.2 Q 260.3 -10.4 260 -11.6 L 260 -11.6 L 260 -11.6 Q 258.4 -10 255.8 -9 L 255.8 -9 L 255.8 -9 Q 253.2 -8 250.4 -8 L 250.4 -8 L 250.4 -8 Q 247.7 -8 245.3 -8.9 L 245.3 -8.9 L 245.3 -8.9 Q 242.9 -9.8 241 -11.8 L 241 -11.8 L 241 -11.8 Q 236.9 -16.2 236.9 -24.4 L 236.9 -24.4 L 236.9 -24.4 Q 236.9 -37.2 243.8 -44.9 L 243.8 -44.9 L 243.8 -44.9 Q 250.8 -52.8 263.3 -52.8 L 263.3 -52.8 L 263.3 -52.8 Q 271.9 -52.8 275 -48.4 L 275 -48.4 L 275 -48.4 Q 276 -47 276 -45.3 L 276 -45.3 L 276 -45.3 Q 276 -43.6 275.2 -42.1 L 275.2 -42.1 L 275.2 -42.1 Q 274.5 -40.7 273.3 -39.5 L 273.3 -39.5 L 273.3 -39.5 Q 270.6 -37 267.2 -37 L 267.2 -37 L 267.2 -37 Q 265.8 -37 264.6 -37.4 L 264.6 -37.4 L 264.6 -37.4 Q 264.8 -39.3 264.8 -41.6 L 264.8 -41.6 L 264.8 -41.6 Q 264.8 -43.8 264.7 -44.8 L 264.7 -44.8 L 264.7 -44.8 Q 264.5 -45.9 264.1 -46.7 L 264.1 -46.7 L 264.1 -46.7 Q 263.3 -48.4 261.5 -48.4 L 261.5 -48.4 L 261.5 -48.4 Q 259.6 -48.4 257.6 -46.5 L 257.6 -46.5 L 257.6 -46.5 Q 255.6 -44.5 254 -41.3 L 254 -41.3 L 254 -41.3 Q 250.5 -34.2 250.5 -25.5 L 250.5 -25.5 L 250.5 -25.5 Q 250.5 -21.5 252 -18.7 L 252 -18.7 L 252 -18.7 Q 253.7 -15.7 256.6 -15.7 L 256.6 -15.7 L 256.6 -15.7 Q 257.6 -15.7 258.6 -16.2 L 258.6 -16.2 L 258.6 -16.2 Q 259.5 -16.7 259.9 -17.1 L 259.9 -17.1 L 261.9 -29.9 Z M 280.8 -11.2 L 280.8 -11.2 L 280.8 -11.2 Q 279.3 -12.9 278.6 -15.5 L 278.6 -15.5 L 278.6 -15.5 Q 277.9 -18.2 277.9 -22.4 L 277.9 -22.4 L 277.9 -22.4 Q 277.9 -26.7 279.4 -30.6 L 279.4 -30.6 L 279.4 -30.6 Q 280.9 -34.5 283.6 -37.4 L 283.6 -37.4 L 283.6 -37.4 Q 289.1 -43.2 298.2 -43.2 L 298.2 -43.2 L 298.2 -43.2 Q 301.4 -43.2 303.8 -42.2 L 303.8 -42.2 L 314.7 -43.2 L 310 -18.3 L 310 -18.3 Q 309.8 -17.5 309.8 -16.1 L 309.8 -16.1 L 309.8 -16.1 Q 309.8 -14.7 310.7 -13.8 L 310.7 -13.8 L 310.7 -13.8 Q 311.5 -12.9 312.8 -12.8 L 312.8 -12.8 L 312.8 -12.8 Q 312.2 -10.6 309.8 -9.3 L 309.8 -9.3 L 309.8 -9.3 Q 307.5 -8 304.9 -8 L 304.9 -8 L 304.9 -8 Q 302.3 -8 300.5 -9 L 300.5 -9 L 300.5 -9 Q 298.7 -10 298.2 -11.7 L 298.2 -11.7 L 298.2 -11.7 Q 297.2 -10.1 295 -9.1 L 295 -9.1 L 295 -9.1 Q 292.8 -8 289.9 -8 L 289.9 -8 L 289.9 -8 Q 287 -8 284.7 -8.8 L 284.7 -8.8 L 284.7 -8.8 Q 282.3 -9.6 280.8 -11.2 Z M 294.3 -37.2 L 294.3 -37.2 L 294.3 -37.2 Q 293.6 -36.1 292.9 -34.1 L 292.9 -34.1 L 292.9 -34.1 Q 292.3 -32.2 291.2 -27 L 291.2 -27 L 291.2 -27 Q 290.2 -21.7 290.2 -18 L 290.2 -18 L 290.2 -18 Q 290.2 -14.3 290.7 -13.2 L 290.7 -13.2 L 290.7 -13.2 Q 291.3 -12.1 292.3 -12.1 L 292.3 -12.1 L 292.3 -12.1 Q 294.4 -12.1 295.9 -14.1 L 295.9 -14.1 L 295.9 -14.1 Q 297.4 -16 298 -19.5 L 298 -19.5 L 301.4 -38.3 L 301.4 -38.3 Q 300 -39.4 298.4 -39.4 L 298.4 -39.4 L 298.4 -39.4 Q 296.9 -39.4 296 -38.9 L 296 -38.9 L 296 -38.9 Q 295 -38.4 294.3 -37.2 Z M 333.5 -12.8 L 333.5 -12.8 L 333.5 -12.8 Q 331.5 -8 325.2 -8 L 325.2 -8 L 325.2 -8 Q 322 -8 319.9 -10.3 L 319.9 -10.3 L 319.9 -10.3 Q 318.3 -12.1 318.3 -14.3 L 318.3 -14.3 L 318.3 -14.3 Q 318.3 -19.1 320.5 -29.5 L 320.5 -29.5 L 325.2 -54.1 L 338.2 -55.4 L 332 -23 L 332 -23 Q 330.9 -18.3 330.9 -16.6 L 330.9 -16.6 L 330.9 -16.6 Q 330.9 -13 333.5 -12.8 Z M 354.2 -12.8 L 354.2 -12.8 L 354.2 -12.8 Q 352.2 -8 345.9 -8 L 345.9 -8 L 345.9 -8 Q 342.7 -8 340.7 -10.3 L 340.7 -10.3 L 340.7 -10.3 Q 339 -12.1 339 -14.3 L 339 -14.3 L 339 -14.3 Q 339 -19.1 341.2 -29.5 L 341.2 -29.5 L 345.9 -54.1 L 358.9 -55.4 L 352.7 -23 L 352.7 -23 Q 351.6 -18.3 351.6 -16.6 L 351.6 -16.6 L 351.6 -16.6 Q 351.6 -13 354.2 -12.8 Z M 385.6 -20.1 L 385.6 -20.1 L 385.6 -20.1 Q 387.2 -19.1 387.2 -16.7 L 387.2 -16.7 L 387.2 -16.7 Q 387.2 -14.3 386 -12.7 L 386 -12.7 L 386 -12.7 Q 384.8 -11.2 382.8 -10.2 L 382.8 -10.2 L 382.8 -10.2 Q 378.7 -8 374.3 -8 L 374.3 -8 L 374.3 -8 Q 369.8 -8 367.2 -9 L 367.2 -9 L 367.2 -9 Q 364.7 -10 362.9 -11.8 L 362.9 -11.8 L 362.9 -11.8 Q 359.5 -15.1 359.5 -21.4 L 359.5 -21.4 L 359.5 -21.4 Q 359.5 -31 364.8 -36.9 L 364.8 -36.9 L 364.8 -36.9 Q 370.4 -43.2 380.2 -43.2 L 380.2 -43.2 L 380.2 -43.2 Q 386.3 -43.2 389.3 -40.7 L 389.3 -40.7 L 389.3 -40.7 Q 391.5 -38.8 391.5 -35.6 L 391.5 -35.6 L 391.5 -35.6 Q 391.5 -24.4 372.1 -24.4 L 372.1 -24.4 L 372.1 -24.4 Q 371.8 -22.7 371.8 -21.3 L 371.8 -21.3 L 371.8 -21.3 Q 371.8 -18.3 373.1 -17.2 L 373.1 -17.2 L 373.1 -17.2 Q 374.4 -16.1 376.9 -16.1 L 376.9 -16.1 L 376.9 -16.1 Q 379.3 -16.1 381.9 -17.2 L 381.9 -17.2 L 381.9 -17.2 Q 384.5 -18.3 385.6 -20.1 Z M 372.5 -27.1 L 372.5 -27.1 L 372.5 -27.1 Q 377.1 -27.1 379.7 -29.9 L 379.7 -29.9 L 379.7 -29.9 Q 382.3 -32.6 382.3 -36.9 L 382.3 -36.9 L 382.3 -36.9 Q 382.3 -38.4 381.8 -39.2 L 381.8 -39.2 L 381.8 -39.2 Q 381.2 -40 380.1 -40 L 380.1 -40 L 380.1 -40 Q 379.1 -40 378.1 -39.6 L 378.1 -39.6 L 378.1 -39.6 Q 377.2 -39.1 376.2 -37.7 L 376.2 -37.7 L 376.2 -37.7 Q 373.9 -34.5 372.5 -27.1 Z M 413.7 -27.3 L 413.7 -27.3 L 413.7 -27.3 Q 416 -31.4 416 -35.6 L 416 -35.6 L 416 -35.6 Q 416 -38.3 414.1 -38.3 L 414.1 -38.3 L 414.1 -38.3 Q 412.5 -38.3 410.9 -35.7 L 410.9 -35.7 L 410.9 -35.7 Q 409.3 -33.1 408.8 -29.7 L 408.8 -29.7 L 405.4 -9.3 L 392.2 -8 L 398.7 -42 L 409.3 -43.2 L 408.1 -36.8 L 408.1 -36.8 Q 411.2 -43.2 418.3 -43.2 L 418.3 -43.2 L 418.3 -43.2 Q 422 -43.2 424 -41.3 L 424 -41.3 L 424 -41.3 Q 426 -39.4 426 -35.5 L 426 -35.5 L 426 -35.5 Q 426 -31.5 423.4 -29 L 423.4 -29 L 423.4 -29 Q 420.8 -26.5 416.4 -26.5 L 416.4 -26.5 L 416.4 -26.5 Q 414.5 -26.5 413.7 -27.3 Z M 447.4 -16.6 L 447.4 -16.6 L 447.4 -16.6 Q 444.1 -13.1 438 -13.1 L 438 -13.1 L 438 -13.1 Q 430.4 -13.1 428.8 -18.7 L 428.8 -18.7 L 428.8 -18.7 Q 428.3 -20.3 428.3 -22.2 L 428.3 -22.2 L 428.3 -22.2 Q 428.3 -24 428.7 -26 L 428.7 -26 L 431.7 -42 L 444.7 -43.2 L 441.1 -24.6 L 441.1 -24.6 Q 441 -23.8 440.8 -22.9 L 440.8 -22.9 L 440.8 -22.9 Q 440.6 -22 440.6 -21.1 L 440.6 -21.1 L 440.6 -21.1 Q 440.6 -20.1 440.9 -19.5 L 440.9 -19.5 L 440.9 -19.5 Q 441.3 -18.9 441.7 -18.5 L 441.7 -18.5 L 441.7 -18.5 Q 442.5 -18 443.9 -18 L 443.9 -18 L 443.9 -18 Q 445.2 -18 446.4 -19.7 L 446.4 -19.7 L 446.4 -19.7 Q 447.6 -21.4 448.2 -24.2 L 448.2 -24.2 L 451.7 -42 L 464.3 -43.2 L 459.5 -18.1 L 459.5 -18.1 Q 457.1 -5.8 452.3 -0.9 L 452.3 -0.9 L 452.3 -0.9 Q 449.8 1.6 446.5 2.5 L 446.5 2.5 L 446.5 2.5 Q 443.3 3.5 439.2 3.5 L 439.2 3.5 L 439.2 3.5 Q 432.4 3.5 428.6 1.4 L 428.6 1.4 L 428.6 1.4 Q 424.8 -0.7 424.8 -4.2 L 424.8 -4.2 L 424.8 -4.2 Q 424.8 -6.8 426.7 -8.3 L 426.7 -8.3 L 426.7 -8.3 Q 428.7 -9.8 431.8 -9.8 L 431.8 -9.8 L 431.8 -9.8 Q 434.5 -9.8 436.5 -8.7 L 436.5 -8.7 L 436.5 -8.7 Q 437.7 -8 438.3 -7.1 L 438.3 -7.1 L 438.3 -7.1 Q 436.8 -5.8 436.8 -3.7 L 436.8 -3.7 L 436.8 -3.7 Q 436.8 -0.9 439.4 -0.9 L 439.4 -0.9 L 439.4 -0.9 Q 443.6 -0.9 446.1 -10.6 L 446.1 -10.6 L 446.1 -10.6 Q 446.8 -13.5 447.4 -16.6 Z" fill="url(#editing-outline-gradient)"></path></g></g><style>text {
  font-size: 64px;
  font-family: Arial Black;
  dominant-baseline: central;
  text-anchor: middle;
}</style></svg>